# xmcd
#
# Track frame offsets:
#	150
#	5151
#	26104
#	50233
#	67520
#	85646
#	103921
#	112134
#	133957
#	156016
#	170276
#	189350
#	202317
#	222579
#
# Disc length: 4578 seconds
#
# Revision: 2
# Processed by: cddbd v1.5.2PL0 Copyright (c) Steve Scherf et al.
# Submitted via: EasyCDDAExtractor 16.0.6.1
#
DISCID=d011e00e
DTITLE=Pura Fe - Hold The Rain
DYEAR=2007
DGENRE=Blues
TTITLE0=My people my land (Part 1)
TTITLE1=If I was your guitar
TTITLE2=Summertime
TTITLE3=Let heaven show
TTITLE4=Little girl dreaming
TTITLE5=Hold the rain (Part 1)
TTITLE6=Hold the rain (Part 2)
TTITLE7=Follow your heart's desire
TTITLE8=A love like mine
TTITLE9=People you love
TTITLE10=Home
TTITLE11=Quiet moments
TTITLE12=My people my land (Part 2)
TTITLE13=DATA
EXTD=
EXTT0=
EXTT1=
EXTT2=
EXTT3=
EXTT4=
EXTT5=
EXTT6=
EXTT7=
EXTT8=
EXTT9=
EXTT10=
EXTT11=
EXTT12=
EXTT13=
PLAYORDER=
